<?xml version="1.0" encoding="UTF-8"?>
<svg xmlns="http://www.w3.org/2000/svg" width="100" height="100">
  <path d="M29 23h36c.553 0 1-.448 1-1s-.447-1-1-1H29c-.552 0-1 .448-1 1s.448 1 1 1zm0 14h36c.553 0 1-.448 1-1s-.447-1-1-1H29c-.552 0-1 .448-1 1s.448 1 1 1zm0 12h36c.553 0 1-.448 1-1s-.447-1-1-1H29c-.552 0-1 .448-1 1s.448 1 1 1zm36 13c.553 0 1-.447 1-1s-.447-1-1-1H29c-.552 0-1 .447-1 1s.448 1 1 1h36z"/>
  <path d="M87.134 68.989C84.295 66.15 80.702 64.534 77 64.117V13c0-.542-.291-1.013-.722-1.277-.104-.171-.236-.325-.398-.441l-9.348-8.87c-.344-.326-.813-.457-1.266-.385C65.18 2.011 65.092 2 65 2H18.5c-.829 0-1.5.671-1.5 1.5V9h-5.5c-.829 0-1.5.671-1.5 1.5v78c0 .828.671 1.5 1.5 1.5h49.102c.68 1.097 1.479 2.14 2.431 3.092 6.656 6.655 17.447 6.655 24.104 0s6.653-17.446-.003-24.103zM20 5h44v7.5c0 .829.672 1.5 1.5 1.5H74v50.051c-3.993.253-7.915 1.888-10.967 4.938-3.063 3.063-4.698 7.002-4.941 11.011H20V5zm-7 82V12h4v69.5c0 .828.671 1.5 1.5 1.5h39.667c.156 1.36.479 2.702.964 4H13zm73.923-4H77v10.13c0 .828-.672 1.5-1.5 1.5-.829 0-1.5-.672-1.5-1.5V83H63.653c-.828 0-1.5-.672-1.5-1.5s.671-1.5 1.5-1.5H74V69.862c0-.828.672-1.5 1.5-1.5s1.5.672 1.5 1.5V80h9.923c.828 0 1.5.672 1.5 1.5s-.672 1.5-1.5 1.5z"/>
</svg>